<?xml version="1.0" encoding="UTF-8"?>
<svg width="1024" height="1024" viewBox="0 0 1024 1024" xmlns="http://www.w3.org/2000/svg">
  <defs>
    <linearGradient id="bgGrad" x1="0" y1="0" x2="0" y2="1">
      <stop offset="0"    stop-color="#3B4252"/>
      <stop offset="0.42" stop-color="#262B36"/>
      <stop offset="1"    stop-color="#13161D"/>
    </linearGradient>
    <radialGradient id="topSheen" cx="0.5" cy="0.02" r="0.95">
      <stop offset="0"    stop-color="#FFFFFF" stop-opacity="0.18"/>
      <stop offset="0.45" stop-color="#FFFFFF" stop-opacity="0.035"/>
      <stop offset="1"    stop-color="#FFFFFF" stop-opacity="0"/>
    </radialGradient>
    <linearGradient id="notchGrad" x1="0" y1="0" x2="0" y2="1">
      <stop offset="0" stop-color="#0C0E12"/>
      <stop offset="1" stop-color="#000000"/>
    </linearGradient>
    <linearGradient id="greenGrad" x1="0" y1="0" x2="0" y2="1">
      <stop offset="0" stop-color="#54E27E"/>
      <stop offset="1" stop-color="#26B04E"/>
    </linearGradient>
    <radialGradient id="badgeSheen" cx="0.5" cy="0.12" r="0.9">
      <stop offset="0"   stop-color="#FFFFFF" stop-opacity="0.32"/>
      <stop offset="0.6" stop-color="#FFFFFF" stop-opacity="0.04"/>
      <stop offset="1"   stop-color="#FFFFFF" stop-opacity="0"/>
    </radialGradient>
    <clipPath id="squircleClip"><path d="M 944.00 512.00 L 943.94 612.61 L 943.76 644.74 L 943.47 668.08 L 943.05 687.06 L 942.52 703.32 L 941.86 717.69 L 941.09 730.64 L 940.20 742.48 L 939.19 753.41 L 938.05 763.58 L 936.79 773.11 L 935.42 782.07 L 933.91 790.54 L 932.29 798.56 L 930.53 806.18 L 928.65 813.45 L 926.65 820.37 L 924.51 826.99 L 922.24 833.33 L 919.85 839.39 L 917.31 845.21 L 914.64 850.79 L 911.84 856.14 L 908.89 861.28 L 905.80 866.21 L 902.56 870.95 L 899.17 875.50 L 895.63 879.86 L 891.93 884.06 L 888.08 888.08 L 884.06 891.93 L 879.86 895.63 L 875.50 899.17 L 870.95 902.56 L 866.21 905.80 L 861.28 908.89 L 856.14 911.84 L 850.79 914.64 L 845.21 917.31 L 839.39 919.85 L 833.33 922.24 L 826.99 924.51 L 820.37 926.65 L 813.45 928.65 L 806.18 930.53 L 798.56 932.29 L 790.54 933.91 L 782.07 935.42 L 773.11 936.79 L 763.58 938.05 L 753.41 939.19 L 742.48 940.20 L 730.64 941.09 L 717.69 941.86 L 703.32 942.52 L 687.06 943.05 L 668.08 943.47 L 644.74 943.76 L 612.61 943.94 L 512.00 944.00 L 411.39 943.94 L 379.26 943.76 L 355.92 943.47 L 336.94 943.05 L 320.68 942.52 L 306.31 941.86 L 293.36 941.09 L 281.52 940.20 L 270.59 939.19 L 260.42 938.05 L 250.89 936.79 L 241.93 935.42 L 233.46 933.91 L 225.44 932.29 L 217.82 930.53 L 210.55 928.65 L 203.63 926.65 L 197.01 924.51 L 190.67 922.24 L 184.61 919.85 L 178.79 917.31 L 173.21 914.64 L 167.86 911.84 L 162.72 908.89 L 157.79 905.80 L 153.05 902.56 L 148.50 899.17 L 144.14 895.63 L 139.94 891.93 L 135.92 888.08 L 132.07 884.06 L 128.37 879.86 L 124.83 875.50 L 121.44 870.95 L 118.20 866.21 L 115.11 861.28 L 112.16 856.14 L 109.36 850.79 L 106.69 845.21 L 104.15 839.39 L 101.76 833.33 L 99.49 826.99 L 97.35 820.37 L 95.35 813.45 L 93.47 806.18 L 91.71 798.56 L 90.09 790.54 L 88.58 782.07 L 87.21 773.11 L 85.95 763.58 L 84.81 753.41 L 83.80 742.48 L 82.91 730.64 L 82.14 717.69 L 81.48 703.32 L 80.95 687.06 L 80.53 668.08 L 80.24 644.74 L 80.06 612.61 L 80.00 512.00 L 80.06 411.39 L 80.24 379.26 L 80.53 355.92 L 80.95 336.94 L 81.48 320.68 L 82.14 306.31 L 82.91 293.36 L 83.80 281.52 L 84.81 270.59 L 85.95 260.42 L 87.21 250.89 L 88.58 241.93 L 90.09 233.46 L 91.71 225.44 L 93.47 217.82 L 95.35 210.55 L 97.35 203.63 L 99.49 197.01 L 101.76 190.67 L 104.15 184.61 L 106.69 178.79 L 109.36 173.21 L 112.16 167.86 L 115.11 162.72 L 118.20 157.79 L 121.44 153.05 L 124.83 148.50 L 128.37 144.14 L 132.07 139.94 L 135.92 135.92 L 139.94 132.07 L 144.14 128.37 L 148.50 124.83 L 153.05 121.44 L 157.79 118.20 L 162.72 115.11 L 167.86 112.16 L 173.21 109.36 L 178.79 106.69 L 184.61 104.15 L 190.67 101.76 L 197.01 99.49 L 203.63 97.35 L 210.55 95.35 L 217.82 93.47 L 225.44 91.71 L 233.46 90.09 L 241.93 88.58 L 250.89 87.21 L 260.42 85.95 L 270.59 84.81 L 281.52 83.80 L 293.36 82.91 L 306.31 82.14 L 320.68 81.48 L 336.94 80.95 L 355.92 80.53 L 379.26 80.24 L 411.39 80.06 L 512.00 80.00 L 612.61 80.06 L 644.74 80.24 L 668.08 80.53 L 687.06 80.95 L 703.32 81.48 L 717.69 82.14 L 730.64 82.91 L 742.48 83.80 L 753.41 84.81 L 763.58 85.95 L 773.11 87.21 L 782.07 88.58 L 790.54 90.09 L 798.56 91.71 L 806.18 93.47 L 813.45 95.35 L 820.37 97.35 L 826.99 99.49 L 833.33 101.76 L 839.39 104.15 L 845.21 106.69 L 850.79 109.36 L 856.14 112.16 L 861.28 115.11 L 866.21 118.20 L 870.95 121.44 L 875.50 124.83 L 879.86 128.37 L 884.06 132.07 L 888.08 135.92 L 891.93 139.94 L 895.63 144.14 L 899.17 148.50 L 902.56 153.05 L 905.80 157.79 L 908.89 162.72 L 911.84 167.86 L 914.64 173.21 L 917.31 178.79 L 919.85 184.61 L 922.24 190.67 L 924.51 197.01 L 926.65 203.63 L 928.65 210.55 L 930.53 217.82 L 932.29 225.44 L 933.91 233.46 L 935.42 241.93 L 936.79 250.89 L 938.05 260.42 L 939.19 270.59 L 940.20 281.52 L 941.09 293.36 L 941.86 306.31 L 942.52 320.68 L 943.05 336.94 L 943.47 355.92 L 943.76 379.26 L 943.94 411.39 L 944.00 512.00 Z"/></clipPath>
    <filter id="badgeShadow" x="-50%" y="-50%" width="200%" height="200%">
      <feDropShadow dx="0" dy="16" stdDeviation="22" flood-color="#000000" flood-opacity="0.42"/>
    </filter>
    <filter id="notchShadow" x="-40%" y="-40%" width="180%" height="220%">
      <feDropShadow dx="0" dy="10" stdDeviation="16" flood-color="#000000" flood-opacity="0.45"/>
    </filter>
  </defs>

  <!-- Squircle body -->
  <g clip-path="url(#squircleClip)">
    <rect width="1024" height="1024" fill="url(#bgGrad)"/>
    <rect width="1024" height="1024" fill="url(#topSheen)"/>

    <!-- Notch pill: flush top edge, rounded bottom corners (the MacBook notch) -->
    <g filter="url(#notchShadow)">
      <path d="M338 286
               h348
               v128
               a98 98 0 0 1 -98 98
               h-152
               a98 98 0 0 1 -98 -98
               z"
            fill="url(#notchGrad)"/>
    </g>
    <path d="M338 286 h348 v4 h-348 z" fill="#FFFFFF" fill-opacity="0.06"/>
  </g>

  <!-- Crisp inner edge -->
  <path d="M 944.00 512.00 L 943.94 612.61 L 943.76 644.74 L 943.47 668.08 L 943.05 687.06 L 942.52 703.32 L 941.86 717.69 L 941.09 730.64 L 940.20 742.48 L 939.19 753.41 L 938.05 763.58 L 936.79 773.11 L 935.42 782.07 L 933.91 790.54 L 932.29 798.56 L 930.53 806.18 L 928.65 813.45 L 926.65 820.37 L 924.51 826.99 L 922.24 833.33 L 919.85 839.39 L 917.31 845.21 L 914.64 850.79 L 911.84 856.14 L 908.89 861.28 L 905.80 866.21 L 902.56 870.95 L 899.17 875.50 L 895.63 879.86 L 891.93 884.06 L 888.08 888.08 L 884.06 891.93 L 879.86 895.63 L 875.50 899.17 L 870.95 902.56 L 866.21 905.80 L 861.28 908.89 L 856.14 911.84 L 850.79 914.64 L 845.21 917.31 L 839.39 919.85 L 833.33 922.24 L 826.99 924.51 L 820.37 926.65 L 813.45 928.65 L 806.18 930.53 L 798.56 932.29 L 790.54 933.91 L 782.07 935.42 L 773.11 936.79 L 763.58 938.05 L 753.41 939.19 L 742.48 940.20 L 730.64 941.09 L 717.69 941.86 L 703.32 942.52 L 687.06 943.05 L 668.08 943.47 L 644.74 943.76 L 612.61 943.94 L 512.00 944.00 L 411.39 943.94 L 379.26 943.76 L 355.92 943.47 L 336.94 943.05 L 320.68 942.52 L 306.31 941.86 L 293.36 941.09 L 281.52 940.20 L 270.59 939.19 L 260.42 938.05 L 250.89 936.79 L 241.93 935.42 L 233.46 933.91 L 225.44 932.29 L 217.82 930.53 L 210.55 928.65 L 203.63 926.65 L 197.01 924.51 L 190.67 922.24 L 184.61 919.85 L 178.79 917.31 L 173.21 914.64 L 167.86 911.84 L 162.72 908.89 L 157.79 905.80 L 153.05 902.56 L 148.50 899.17 L 144.14 895.63 L 139.94 891.93 L 135.92 888.08 L 132.07 884.06 L 128.37 879.86 L 124.83 875.50 L 121.44 870.95 L 118.20 866.21 L 115.11 861.28 L 112.16 856.14 L 109.36 850.79 L 106.69 845.21 L 104.15 839.39 L 101.76 833.33 L 99.49 826.99 L 97.35 820.37 L 95.35 813.45 L 93.47 806.18 L 91.71 798.56 L 90.09 790.54 L 88.58 782.07 L 87.21 773.11 L 85.95 763.58 L 84.81 753.41 L 83.80 742.48 L 82.91 730.64 L 82.14 717.69 L 81.48 703.32 L 80.95 687.06 L 80.53 668.08 L 80.24 644.74 L 80.06 612.61 L 80.00 512.00 L 80.06 411.39 L 80.24 379.26 L 80.53 355.92 L 80.95 336.94 L 81.48 320.68 L 82.14 306.31 L 82.91 293.36 L 83.80 281.52 L 84.81 270.59 L 85.95 260.42 L 87.21 250.89 L 88.58 241.93 L 90.09 233.46 L 91.71 225.44 L 93.47 217.82 L 95.35 210.55 L 97.35 203.63 L 99.49 197.01 L 101.76 190.67 L 104.15 184.61 L 106.69 178.79 L 109.36 173.21 L 112.16 167.86 L 115.11 162.72 L 118.20 157.79 L 121.44 153.05 L 124.83 148.50 L 128.37 144.14 L 132.07 139.94 L 135.92 135.92 L 139.94 132.07 L 144.14 128.37 L 148.50 124.83 L 153.05 121.44 L 157.79 118.20 L 162.72 115.11 L 167.86 112.16 L 173.21 109.36 L 178.79 106.69 L 184.61 104.15 L 190.67 101.76 L 197.01 99.49 L 203.63 97.35 L 210.55 95.35 L 217.82 93.47 L 225.44 91.71 L 233.46 90.09 L 241.93 88.58 L 250.89 87.21 L 260.42 85.95 L 270.59 84.81 L 281.52 83.80 L 293.36 82.91 L 306.31 82.14 L 320.68 81.48 L 336.94 80.95 L 355.92 80.53 L 379.26 80.24 L 411.39 80.06 L 512.00 80.00 L 612.61 80.06 L 644.74 80.24 L 668.08 80.53 L 687.06 80.95 L 703.32 81.48 L 717.69 82.14 L 730.64 82.91 L 742.48 83.80 L 753.41 84.81 L 763.58 85.95 L 773.11 87.21 L 782.07 88.58 L 790.54 90.09 L 798.56 91.71 L 806.18 93.47 L 813.45 95.35 L 820.37 97.35 L 826.99 99.49 L 833.33 101.76 L 839.39 104.15 L 845.21 106.69 L 850.79 109.36 L 856.14 112.16 L 861.28 115.11 L 866.21 118.20 L 870.95 121.44 L 875.50 124.83 L 879.86 128.37 L 884.06 132.07 L 888.08 135.92 L 891.93 139.94 L 895.63 144.14 L 899.17 148.50 L 902.56 153.05 L 905.80 157.79 L 908.89 162.72 L 911.84 167.86 L 914.64 173.21 L 917.31 178.79 L 919.85 184.61 L 922.24 190.67 L 924.51 197.01 L 926.65 203.63 L 928.65 210.55 L 930.53 217.82 L 932.29 225.44 L 933.91 233.46 L 935.42 241.93 L 936.79 250.89 L 938.05 260.42 L 939.19 270.59 L 940.20 281.52 L 941.09 293.36 L 941.86 306.31 L 942.52 320.68 L 943.05 336.94 L 943.47 355.92 L 943.76 379.26 L 943.94 411.39 L 944.00 512.00 Z" fill="none" stroke="#FFFFFF" stroke-opacity="0.10" stroke-width="2"/>

  <!-- Green confirmation badge -->
  <g filter="url(#badgeShadow)" transform="translate(512 564)">
    <circle r="156" fill="url(#greenGrad)"/>
    <circle r="156" fill="url(#badgeSheen)"/>
    <circle r="155" fill="none" stroke="#FFFFFF" stroke-opacity="0.18" stroke-width="2"/>
    <path d="M-68 8 L-18 60 L78 -54"
          fill="none" stroke="#FFFFFF" stroke-width="36"
          stroke-linecap="round" stroke-linejoin="round"/>
  </g>
</svg>
